<svg width="309" height="62" viewBox="0 0 309 62" fill="none" xmlns="http://www.w3.org/2000/svg">
<path d="M31.872 59H23.616L14.64 44.552L11.568 46.76V59H4.32V24.728H11.568V40.424C12.048 39.752 12.528 39.08 13.008 38.408C13.488 37.736 13.968 37.064 14.448 36.392L23.712 24.728H31.776L19.824 39.896L31.872 59ZM55.923 59H36.195V24.728H55.923V30.68H43.443V38.216H55.059V44.168H43.443V53H55.923V59ZM82.7824 59H63.0544V24.728H82.7824V30.68H70.3024V38.216H81.9184V44.168H70.3024V53H82.7824V59ZM120.298 59H111.082L96.1538 33.08H95.9618C95.9938 33.88 96.0258 34.696 96.0578 35.528C96.0898 36.328 96.1218 37.144 96.1538 37.976C96.2178 38.776 96.2658 39.592 96.2978 40.424C96.3298 41.224 96.3618 42.04 96.3938 42.872V59H89.9138V24.728H99.0818L113.962 50.408H114.106C114.074 49.608 114.042 48.824 114.01 48.056C113.978 47.256 113.946 46.472 113.914 45.704C113.914 44.904 113.898 44.12 113.866 43.352C113.834 42.552 113.802 41.752 113.77 40.952V24.728H120.298V59ZM148.689 59H128.961V24.728H148.689V30.68H136.209V38.216H147.825V44.168H136.209V53H148.689V59ZM165.804 24.728C168.908 24.728 171.468 25.112 173.484 25.88C175.5 26.616 177.004 27.752 177.996 29.288C178.988 30.792 179.484 32.696 179.484 35C179.484 36.568 179.18 37.944 178.572 39.128C177.996 40.28 177.212 41.272 176.22 42.104C175.26 42.904 174.22 43.56 173.1 44.072L183.18 59H175.116L166.956 45.848H163.068V59H155.82V24.728H165.804ZM165.276 30.68H163.068V39.944H165.42C167.02 39.944 168.316 39.768 169.308 39.416C170.3 39.064 171.02 38.536 171.468 37.832C171.916 37.096 172.14 36.216 172.14 35.192C172.14 34.104 171.884 33.24 171.372 32.6C170.892 31.928 170.14 31.448 169.116 31.16C168.124 30.84 166.844 30.68 165.276 30.68ZM184.922 55.7422C184.922 55.2422 185.016 54.7734 185.203 54.3359C185.391 53.8828 185.648 53.5 185.977 53.1875C186.305 52.8594 186.688 52.6016 187.125 52.4141C187.578 52.2109 188.062 52.1094 188.578 52.1094C189.062 52.1094 189.531 52.2109 189.984 52.4141C190.438 52.6016 190.82 52.8594 191.133 53.1875C191.461 53.5 191.719 53.8828 191.906 54.3359C192.094 54.7734 192.188 55.2422 192.188 55.7422C192.188 56.2578 192.094 56.7344 191.906 57.1719C191.719 57.6094 191.461 57.9922 191.133 58.3203C190.82 58.6328 190.438 58.875 189.984 59.0469C189.531 59.2344 189.062 59.3281 188.578 59.3281C188.062 59.3281 187.578 59.2344 187.125 59.0469C186.688 58.875 186.305 58.6328 185.977 58.3203C185.648 57.9922 185.391 57.6094 185.203 57.1719C185.016 56.7344 184.922 56.2578 184.922 55.7422ZM205.441 59H198.289V24.728H217.921V30.68H205.441V39.512H217.057V45.464H205.441V59ZM235.289 38.84L242.441 24.728H250.265L238.889 45.656V59H231.689V45.896L220.312 24.728H228.185L235.289 38.84Z" fill="#055973"/>
<path d="M275.296 30.0762C274.238 28.8781 272.918 27.8977 271.423 27.1983C269.927 26.4989 268.289 26.096 266.614 26.0157C264.936 25.9331 263.258 26.1764 261.689 26.7297C260.12 27.283 258.695 28.134 257.507 29.2274C256.319 30.3207 255.394 31.6319 254.793 33.0757C254.192 34.5195 253.927 36.0637 254.017 37.6077C254.103 39.1455 254.539 40.6496 255.296 42.023C256.053 43.3964 257.114 44.6085 258.412 45.5812L274.051 57.5006C275.959 59.143 278.485 60.0388 281.098 59.9987C283.71 59.9586 286.203 58.9858 288.051 57.2858C289.898 55.5857 290.955 53.2914 290.999 50.8875C291.042 48.4836 290.069 46.1582 288.284 44.4024L275.296 30.0762ZM268.339 39.1958L267.005 47.8734L263.785 45.4338L264.888 38.3444L261.952 35.6429L264.479 33.318L267.414 36.0195L275.1 35.0044L277.769 37.9679L268.339 39.1958Z" fill="#527E8B"/>
<path d="M295.612 29.9338C295.849 28.3532 295.752 26.7122 295.327 25.117C294.901 23.5217 294.157 22.0077 293.141 20.6727C292.126 19.3343 290.861 18.2053 289.429 17.3591C287.996 16.5129 286.429 15.9684 284.827 15.7611C283.226 15.5537 281.627 15.6881 280.135 16.1556C278.642 16.6231 277.289 17.4131 276.164 18.4744C275.042 19.5291 274.17 20.8297 273.604 22.2923C273.039 23.7549 272.792 25.3471 272.881 26.9661L273.803 46.6078C273.771 49.1251 274.709 51.6367 276.419 53.612C278.129 55.5874 280.477 56.8719 282.966 57.1943C285.456 57.5167 287.893 56.8518 289.763 55.3399C291.632 53.8281 292.788 51.5877 292.986 49.0918L295.612 29.9338ZM284.154 30.4668L276.649 35.0224L276.448 30.9874L282.588 27.2754L282.77 23.2901L286.175 23.731L285.993 27.7163L291.711 32.9517L291.156 36.9009L284.154 30.4668Z" fill="#8F8F8F"/>
<path d="M304.924 44.296C306.122 43.2379 307.102 41.9185 307.802 40.4229C308.501 38.9274 308.904 37.289 308.984 35.6136C309.067 33.9358 308.824 32.2579 308.27 30.6889C307.717 29.12 306.866 27.6951 305.773 26.5071C304.679 25.319 303.368 24.3942 301.924 23.7929C300.48 23.1917 298.936 22.9273 297.392 23.0171C295.854 23.1035 294.35 23.5392 292.977 24.2961C291.604 25.053 290.392 26.1144 289.419 27.4117L277.499 43.0506C275.857 44.9585 274.961 47.4855 275.001 50.0978C275.041 52.71 276.014 55.2031 277.714 57.0505C279.414 58.8979 281.709 59.955 284.113 59.9986C286.516 60.0422 288.842 59.0687 290.598 57.2839L304.924 44.296ZM295.804 37.3394L287.127 36.0051L289.566 32.7848L296.656 33.8878L299.357 30.9522L301.682 33.4786L298.981 36.4143L299.996 44.1003L297.032 46.769L295.804 37.3394Z" fill="#055973"/>
</svg>
