<svg width="668" height="473" viewBox="0 0 668 473" fill="none" xmlns="http://www.w3.org/2000/svg">
<path d="M84.992 419H62.976L39.04 380.472L30.848 386.36V419H11.52V327.608H30.848V369.464C32.128 367.672 33.408 365.88 34.688 364.088C35.968 362.296 37.248 360.504 38.528 358.712L63.232 327.608H84.736L52.864 368.056L84.992 419ZM149.128 419H96.52V327.608H149.128V343.48H115.848V363.576H146.824V379.448H115.848V403H149.128V419ZM220.753 419H168.145V327.608H220.753V343.48H187.473V363.576H218.449V379.448H187.473V403H220.753V419ZM320.794 419H296.218L256.41 349.88H255.898C255.983 352.013 256.069 354.189 256.154 356.408C256.239 358.541 256.325 360.717 256.41 362.936C256.581 365.069 256.709 367.245 256.794 369.464C256.879 371.597 256.965 373.773 257.05 375.992V419H239.77V327.608H264.218L303.898 396.088H304.282C304.197 393.955 304.111 391.864 304.026 389.816C303.941 387.683 303.855 385.592 303.77 383.544C303.77 381.411 303.727 379.32 303.642 377.272C303.557 375.139 303.471 373.005 303.386 370.872V327.608H320.794V419ZM396.503 419H343.895V327.608H396.503V343.48H363.223V363.576H394.199V379.448H363.223V403H396.503V419ZM442.144 327.608C450.421 327.608 457.248 328.632 462.624 330.68C468 332.643 472.011 335.672 474.656 339.768C477.301 343.779 478.624 348.856 478.624 355C478.624 359.181 477.813 362.851 476.192 366.008C474.656 369.08 472.565 371.725 469.92 373.944C467.36 376.077 464.587 377.827 461.6 379.192L488.48 419H466.976L445.216 383.928H434.848V419H415.52V327.608H442.144ZM440.736 343.48H434.848V368.184H441.12C445.387 368.184 448.843 367.715 451.488 366.776C454.133 365.837 456.053 364.429 457.248 362.552C458.443 360.589 459.04 358.243 459.04 355.512C459.04 352.611 458.357 350.307 456.992 348.6C455.712 346.808 453.707 345.528 450.976 344.76C448.331 343.907 444.917 343.48 440.736 343.48ZM493.125 410.312C493.125 408.979 493.375 407.729 493.875 406.562C494.375 405.354 495.062 404.333 495.938 403.5C496.812 402.625 497.833 401.938 499 401.438C500.208 400.896 501.5 400.625 502.875 400.625C504.167 400.625 505.417 400.896 506.625 401.438C507.833 401.938 508.854 402.625 509.688 403.5C510.562 404.333 511.25 405.354 511.75 406.562C512.25 407.729 512.5 408.979 512.5 410.312C512.5 411.688 512.25 412.958 511.75 414.125C511.25 415.292 510.562 416.312 509.688 417.188C508.854 418.021 507.833 418.667 506.625 419.125C505.417 419.625 504.167 419.875 502.875 419.875C501.5 419.875 500.208 419.625 499 419.125C497.833 418.667 496.812 418.021 495.938 417.188C495.062 416.312 494.375 415.292 493.875 414.125C493.375 412.958 493.125 411.688 493.125 410.312ZM547.842 419H528.77V327.608H581.122V343.48H547.842V367.032H578.818V382.904H547.842V419ZM627.436 365.24L646.508 327.608H667.372L637.036 383.416V419H617.836V384.056L587.5 327.608H608.492L627.436 365.24Z" fill="#055973"/>
<path d="M296.323 115.457C290.146 108.269 282.443 102.386 273.712 98.1898C264.981 93.9933 255.417 91.5761 245.636 91.0945C235.842 90.5987 226.046 92.0583 216.887 95.3782C207.727 98.6981 199.41 103.804 192.474 110.364C185.538 116.924 180.139 124.791 176.629 133.454C173.119 142.117 171.576 151.382 172.1 160.646C172.604 169.873 175.148 178.898 179.567 187.138C183.985 195.378 190.181 202.651 197.755 208.487L289.052 280.003C300.19 289.858 314.942 295.233 330.192 294.992C345.442 294.752 359.997 288.915 370.781 278.715C381.566 268.514 387.738 254.749 387.992 240.325C388.246 225.901 382.563 211.949 372.144 201.414L296.323 115.457ZM255.711 170.175L247.921 222.24L229.122 207.603L235.561 165.067L218.424 148.858L233.173 134.908L250.31 151.117L295.18 145.026L310.76 162.807L255.711 170.175Z" fill="#527E8B"/>
<path d="M412.654 113.606C414.011 104.122 413.456 94.2759 411.026 84.7042C408.596 75.1324 404.345 66.048 398.546 58.0379C392.749 50.0073 385.525 43.2331 377.346 38.1557C369.166 33.0782 360.213 29.8112 351.069 28.5671C341.925 27.323 332.795 28.1296 324.271 30.9345C315.748 33.7394 308.023 38.4797 301.598 44.8473C295.188 51.1757 290.207 58.9795 286.978 67.7555C283.749 76.5314 282.342 86.0846 282.849 95.799L288.112 213.652C287.931 228.757 293.288 243.826 303.052 255.679C312.816 267.531 326.223 275.239 340.442 277.173C354.66 279.108 368.577 275.118 379.253 266.047C389.929 256.975 396.528 243.532 397.658 228.557L412.654 113.606ZM347.224 116.804L304.365 144.138L303.216 119.927L338.278 97.6551L339.321 73.7425L358.765 76.3881L357.723 100.301L390.377 131.713L387.209 155.41L347.224 116.804Z" fill="#8F8F8F"/>
<path d="M467.622 200.352C474.493 193.975 480.116 186.022 484.127 177.008C488.139 167.995 490.449 158.12 490.91 148.023C491.384 137.91 489.988 127.798 486.815 118.341C483.642 108.885 478.761 100.298 472.49 93.1371C466.22 85.9764 458.699 80.403 450.419 76.7791C442.138 73.1552 433.282 71.562 424.427 72.1031C415.607 72.6238 406.98 75.2498 399.103 79.8118C391.227 84.3738 384.275 90.7704 378.696 98.5892L310.335 192.845C300.915 204.345 295.778 219.575 296.007 235.319C296.237 251.063 301.817 266.089 311.567 277.223C321.317 288.358 334.476 294.729 348.263 294.992C362.05 295.254 375.387 289.387 385.457 278.63L467.622 200.352ZM415.318 158.424L365.55 150.382L379.541 130.973L420.201 137.621L435.695 119.928L449.029 135.155L433.535 152.848L439.357 199.172L422.361 215.257L415.318 158.424Z" fill="#055973"/>
</svg>
